<?xml version="1.0" encoding="iso-8859-1"?>
<!-- Generator: Adobe Illustrator 19.0.0, SVG Export Plug-In . SVG Version: 6.00 Build 0)  -->
<svg version="1.1" id="Layer_1" xmlns="http://www.w3.org/2000/svg" xmlns:xlink="http://www.w3.org/1999/xlink" x="0px" y="0px"
	 viewBox="0 0 512 512" style="enable-background:new 0 0 512 512;" xml:space="preserve">
<polyline style="fill:#65B4BB;" points="110.303,89.843 502.459,89.843 502.459,9.241 11.615,9.241 11.615,89.843 81.072,89.843 "/>
<rect x="31.986" y="89.842" style="fill:#F8F8F8;" width="450.112" height="297.261"/>
<rect x="31.986" y="89.842" style="fill:#F2F2F2;" width="450.112" height="31.06"/>
<g>
	<polygon style="fill:#65B4BB;" points="417.625,502.97 348.027,502.97 297.003,419.985 276.784,387.098 346.37,387.098 
		366.589,419.985 	"/>
	<polygon style="fill:#65B4BB;" points="237.283,387.098 217.064,419.985 166.04,502.97 96.454,502.97 147.465,419.985 
		167.685,387.098 	"/>
</g>
<g>
	<polygon style="fill:#57A3A7;" points="167.685,387.098 237.283,387.098 217.064,419.985 147.465,419.985 	"/>
	<polygon style="fill:#57A3A7;" points="366.589,419.985 297.003,419.985 276.784,387.098 346.37,387.098 	"/>
</g>
<polyline style="fill:none;stroke:#F64B4A;stroke-width:15;stroke-linecap:round;stroke-linejoin:round;stroke-miterlimit:10;" points="
	174.863,280.046 245.383,209.526 280.064,244.208 366.77,157.503 "/>
<path d="M501.422,0H10.579C5.534,0,1.444,4.09,1.444,9.135v80.601c0,5.045,4.09,9.135,9.135,9.135h69.456
	c5.045,0,9.135-4.09,9.135-9.135c0-5.045-4.09-9.135-9.135-9.135H19.714V18.27h472.572v62.33h-383.02
	c-5.045,0-9.135,4.09-9.135,9.135s4.09,9.135,9.135,9.135h362.655v278.985H40.08V119.547c0-5.045-4.09-9.135-9.135-9.135
	s-9.135,4.09-9.135,9.135v267.445c0,5.045,4.09,9.135,9.135,9.135h119.367L87.633,498.08c-1.733,2.819-1.806,6.353-0.191,9.242
	c1.615,2.888,4.665,4.677,7.973,4.677h69.589c3.173,0,6.119-1.648,7.782-4.351l68.562-111.522h29.294l68.574,111.522
	c1.663,2.704,4.608,4.351,7.782,4.351h69.589c3.309,0,6.359-1.789,7.973-4.677c1.614-2.888,1.542-6.424-0.192-9.242l-62.69-101.952
	h119.378c5.045,0,9.135-4.09,9.135-9.135V98.871h11.23c5.045,0,9.135-4.09,9.135-9.135V9.135C510.557,4.09,506.467,0,501.422,0z
	 M159.897,493.73h-48.142l60.003-97.601h48.143L159.897,493.73z M400.245,493.73h-48.14l-60.015-97.601h48.14L400.245,493.73z"/>
<path d="M139.964,122.68c-5.045,0-9.135,4.09-9.135,9.135v176.328H87.807c-5.045,0-9.135,4.09-9.135,9.135
	c0,5.045,4.09,9.135,9.135,9.135h43.022v13.987c0,5.045,4.09,9.135,9.135,9.135s9.135-4.09,9.135-9.135v-13.987h163.053
	c5.045,0,9.135-4.09,9.135-9.135c0-5.045-4.09-9.135-9.135-9.135H149.099V131.815C149.099,126.77,145.01,122.68,139.964,122.68z"/>
<path d="M337.729,317.279c0,5.045,4.09,9.135,9.135,9.135h39.422c5.045,0,9.135-4.09,9.135-9.135c0-5.045-4.09-9.135-9.135-9.135
	h-39.422C341.82,308.144,337.729,312.234,337.729,317.279z"/>
<path d="M359.274,150.937l-80.245,80.245l-28.222-28.223c-1.713-1.714-4.037-2.676-6.459-2.676c-2.423,0-4.747,0.962-6.459,2.676
	l-70.519,70.52c-3.568,3.568-3.568,9.352,0,12.918c1.783,1.783,4.122,2.676,6.459,2.676c2.337,0,4.676-0.892,6.459-2.676
	l64.06-64.061l28.222,28.223c1.713,1.714,4.037,2.676,6.459,2.676c2.423,0,4.747-0.962,6.459-2.676l86.704-86.706
	c3.568-3.568,3.568-9.352,0-12.918C368.625,147.37,362.84,147.37,359.274,150.937z"/>
<g>
</g>
<g>
</g>
<g>
</g>
<g>
</g>
<g>
</g>
<g>
</g>
<g>
</g>
<g>
</g>
<g>
</g>
<g>
</g>
<g>
</g>
<g>
</g>
<g>
</g>
<g>
</g>
<g>
</g>
</svg>
