<svg width="160" height="160" viewBox="0 0 160 160" fill="none" xmlns="http://www.w3.org/2000/svg">
<rect width="160" height="160" rx="16" fill="black"/>
<path d="M64.16 72H53.216L34.912 44.288V72H23.968V27.072H34.912L53.216 54.912V27.072H64.16V72ZM83.037 35.84V44.928H97.693V53.376H83.037V63.232H99.613V72H72.093V27.072H99.613V35.84H83.037ZM134.238 44.992V54.08H106.078V44.992H134.238ZM85.792 87.072L74.08 132H60.832L53.664 102.432L46.24 132H32.992L21.6 87.072H33.312L39.776 119.776L47.776 87.072H59.808L67.488 119.776L74.016 87.072H85.792ZM107.537 132.448C104.251 132.448 101.307 131.915 98.7045 130.848C96.1018 129.781 94.0112 128.203 92.4325 126.112C90.8965 124.021 90.0858 121.504 90.0005 118.56H101.649C101.819 120.224 102.395 121.504 103.377 122.4C104.358 123.253 105.638 123.68 107.217 123.68C108.838 123.68 110.118 123.317 111.057 122.592C111.995 121.824 112.465 120.779 112.465 119.456C112.465 118.347 112.081 117.429 111.313 116.704C110.587 115.979 109.67 115.381 108.561 114.912C107.494 114.443 105.958 113.909 103.953 113.312C101.051 112.416 98.6832 111.52 96.8485 110.624C95.0138 109.728 93.4352 108.405 92.1125 106.656C90.7898 104.907 90.1285 102.624 90.1285 99.808C90.1285 95.6267 91.6432 92.3627 94.6725 90.016C97.7018 87.6267 101.649 86.432 106.513 86.432C111.462 86.432 115.451 87.6267 118.481 90.016C121.51 92.3627 123.131 95.648 123.345 99.872H111.505C111.419 98.4213 110.886 97.2907 109.905 96.48C108.923 95.6267 107.665 95.2 106.128 95.2C104.806 95.2 103.739 95.5627 102.929 96.288C102.118 96.9707 101.713 97.9733 101.713 99.296C101.713 100.747 102.395 101.877 103.76 102.688C105.126 103.499 107.259 104.373 110.161 105.312C113.062 106.293 115.409 107.232 117.201 108.128C119.035 109.024 120.614 110.325 121.937 112.032C123.259 113.739 123.921 115.936 123.921 118.624C123.921 121.184 123.259 123.509 121.937 125.6C120.657 127.691 118.779 129.355 116.305 130.592C113.83 131.829 110.907 132.448 107.537 132.448Z" fill="white"/>
</svg>
