<?xml version="1.0" encoding="iso-8859-1"?>
<!-- Generator: Adobe Illustrator 19.0.0, SVG Export Plug-In . SVG Version: 6.00 Build 0)  -->
<svg version="1.1" id="Layer_1" xmlns="http://www.w3.org/2000/svg" xmlns:xlink="http://www.w3.org/1999/xlink" x="0px" y="0px"
	 viewBox="0 0 473.931 473.931" style="enable-background:new 0 0 473.931 473.931;" xml:space="preserve">
<circle style="fill:#357180;" cx="236.966" cy="236.966" r="236.966"/>
<path style="fill:#F3F4F5;" d="M363.37,382.584c0,13.19-7.412,20.602-20.606,20.602H131.141c-13.193,0-20.606-7.409-20.606-20.602
	V91.325c0-13.19,7.412-20.61,20.606-20.61h211.623c13.193,0,20.606,7.416,20.606,20.61V382.584L363.37,382.584z"/>
<circle style="fill:#717171;" cx="237.265" cy="84.945" r="2.189"/>
<linearGradient id="SVGID_1_" gradientUnits="userSpaceOnUse" x1="-19.2993" y1="495.7354" x2="46.2253" y2="561.2609" gradientTransform="matrix(3.7418 0 0 -3.7418 186.5716 2214.0598)">
	<stop  offset="0" style="stop-color:#5C6EB3"/>
	<stop  offset="0.733" style="stop-color:#3E4280"/>
	<stop  offset="1" style="stop-color:#3E4280"/>
</linearGradient>
<rect x="129.689" y="98.625" style="fill:url(#SVGID_1_);" width="214.515" height="275.843"/>
<rect x="129.689" y="338.33" style="opacity:0.25;fill:#DFF1F5;enable-background:new    ;" width="214.515" height="36.115"/>
<path style="fill:#6CC077;" d="M180.798,152.971c0,2.859-2.316,5.175-5.175,5.175h-15.102c-2.862,0-5.179-2.316-5.179-5.175v-15.105
	c0-2.859,2.316-5.175,5.179-5.175h15.102c2.859,0,5.175,2.316,5.175,5.175V152.971z"/>
<path style="fill:#F5E554;" d="M226.522,152.971c0,2.859-2.316,5.175-5.175,5.175h-15.102c-2.862,0-5.179-2.316-5.179-5.175v-15.105
	c0-2.859,2.32-5.175,5.179-5.175h15.102c2.859,0,5.175,2.316,5.175,5.175V152.971z"/>
<path style="fill:#B5DBAF;" d="M272.254,152.971c0,2.859-2.32,5.175-5.179,5.175h-15.098c-2.859,0-5.179-2.316-5.179-5.175v-15.105
	c0-2.859,2.32-5.175,5.179-5.175h15.098c2.862,0,5.179,2.316,5.179,5.175V152.971z"/>
<path style="fill:#F6A2A3;" d="M317.982,152.971c0,2.859-2.32,5.175-5.175,5.175h-15.098c-2.862,0-5.179-2.316-5.179-5.175v-15.105
	c0-2.859,2.32-5.175,5.179-5.175h15.098c2.859,0,5.175,2.316,5.175,5.175V152.971z"/>
<path style="fill:#6CC077;" d="M180.798,363.123c0,2.851-2.316,5.175-5.175,5.175h-15.102c-2.862,0-5.179-2.324-5.179-5.175v-15.105
	c0-2.859,2.316-5.175,5.179-5.175h15.102c2.859,0,5.175,2.316,5.175,5.175V363.123z"/>
<path style="fill:#F5E554;" d="M226.522,363.123c0,2.851-2.316,5.175-5.175,5.175h-15.102c-2.862,0-5.179-2.324-5.179-5.175v-15.105
	c0-2.859,2.32-5.175,5.179-5.175h15.102c2.859,0,5.175,2.316,5.175,5.175V363.123z"/>
<path style="fill:#B5DBAF;" d="M272.254,363.123c0,2.851-2.32,5.175-5.179,5.175h-15.098c-2.859,0-5.179-2.324-5.179-5.175v-15.105
	c0-2.859,2.32-5.175,5.179-5.175h15.098c2.862,0,5.179,2.316,5.179,5.175V363.123z"/>
<path style="fill:#F6A2A3;" d="M317.982,363.123c0,2.851-2.32,5.175-5.175,5.175h-15.098c-2.862,0-5.179-2.324-5.179-5.175v-15.105
	c0-2.859,2.32-5.175,5.179-5.175h15.098c2.859,0,5.175,2.316,5.175,5.175V363.123z"/>
<path style="fill:#B5DBAF;" d="M180.798,198.946c0,2.859-2.316,5.175-5.175,5.175h-15.102c-2.862,0-5.179-2.316-5.179-5.175V183.84
	c0-2.859,2.316-5.175,5.179-5.175h15.102c2.859,0,5.175,2.316,5.175,5.175V198.946z"/>
<path style="fill:#F6A2A3;" d="M226.522,198.946c0,2.859-2.316,5.175-5.175,5.175h-15.102c-2.862,0-5.179-2.316-5.179-5.175V183.84
	c0-2.859,2.32-5.175,5.179-5.175h15.102c2.859,0,5.175,2.316,5.175,5.175V198.946z"/>
<path style="fill:#67B8CB;" d="M272.254,198.946c0,2.859-2.32,5.175-5.179,5.175h-15.098c-2.859,0-5.179-2.316-5.179-5.175V183.84
	c0-2.859,2.32-5.175,5.179-5.175h15.098c2.862,0,5.179,2.316,5.179,5.175V198.946z"/>
<path style="fill:#F5E554;" d="M317.982,198.946c0,2.859-2.32,5.175-5.175,5.175h-15.098c-2.862,0-5.179-2.316-5.179-5.175V183.84
	c0-2.859,2.32-5.175,5.179-5.175h15.098c2.859,0,5.175,2.316,5.175,5.175V198.946z"/>
<path style="fill:#67B8CB;" d="M180.798,244.913c0,2.851-2.316,5.175-5.175,5.175h-15.102c-2.862,0-5.179-2.324-5.179-5.175v-15.105
	c0-2.859,2.316-5.175,5.179-5.175h15.102c2.859,0,5.175,2.316,5.175,5.175V244.913z"/>
<path style="fill:#F5E554;" d="M226.522,244.913c0,2.851-2.316,5.175-5.175,5.175h-15.102c-2.862,0-5.179-2.324-5.179-5.175v-15.105
	c0-2.859,2.32-5.175,5.179-5.175h15.102c2.859,0,5.175,2.316,5.175,5.175V244.913z"/>
<path style="fill:#6CC077;" d="M272.254,244.913c0,2.851-2.32,5.175-5.179,5.175h-15.098c-2.859,0-5.179-2.324-5.179-5.175v-15.105
	c0-2.859,2.32-5.175,5.179-5.175h15.098c2.862,0,5.179,2.316,5.179,5.175V244.913z"/>
<path style="fill:#B5DBAF;" d="M317.982,244.913c0,2.851-2.32,5.175-5.175,5.175h-15.098c-2.862,0-5.179-2.324-5.179-5.175v-15.105
	c0-2.859,2.32-5.175,5.179-5.175h15.098c2.859,0,5.175,2.316,5.175,5.175V244.913z"/>
<path style="fill:#F6A2A3;" d="M180.798,290.881c0,2.859-2.316,5.175-5.175,5.175h-15.102c-2.862,0-5.179-2.316-5.179-5.175v-15.105
	c0-2.859,2.316-5.175,5.179-5.175h15.102c2.859,0,5.175,2.316,5.175,5.175V290.881z"/>
<path style="fill:#B5DBAF;" d="M226.522,290.881c0,2.859-2.316,5.175-5.175,5.175h-15.102c-2.862,0-5.179-2.316-5.179-5.175v-15.105
	c0-2.859,2.32-5.175,5.179-5.175h15.102c2.859,0,5.175,2.316,5.175,5.175V290.881z"/>
<path style="fill:#F5E554;" d="M272.254,290.881c0,2.859-2.32,5.175-5.179,5.175h-15.098c-2.859,0-5.179-2.316-5.179-5.175v-15.105
	c0-2.859,2.32-5.175,5.179-5.175h15.098c2.862,0,5.179,2.316,5.179,5.175V290.881z"/>
<path style="fill:#67B8CB;" d="M317.982,290.881c0,2.859-2.32,5.175-5.175,5.175h-15.098c-2.862,0-5.179-2.316-5.179-5.175v-15.105
	c0-2.859,2.32-5.175,5.179-5.175h15.098c2.859,0,5.175,2.316,5.175,5.175V290.881z"/>
<rect x="129.876" y="99.014" style="opacity:0.5;fill:#202121;enable-background:new    ;" width="213.654" height="13.41"/>
<g>
	<circle style="fill:#FFFFFF;" cx="320.669" cy="105.293" r="3.42"/>
	<circle style="fill:#FFFFFF;" cx="138.086" cy="105.293" r="3.42"/>
	<circle style="fill:#FFFFFF;" cx="336.272" cy="105.293" r="3.42"/>
</g>
<circle style="fill:#E4E4E4;" cx="237.265" cy="389.068" r="7.659"/>
<path style="fill:none;stroke:#B8B9BA;stroke-width:0.5;stroke-miterlimit:10;" d="M239.723,390.191
	c0,0.722-0.587,1.317-1.313,1.317h-2.26c-0.722,0-1.31-0.591-1.31-1.317v-2.253c0-0.73,0.587-1.325,1.31-1.325h2.26
	c0.722,0,1.313,0.591,1.313,1.325V390.191z"/>
<g>
</g>
<g>
</g>
<g>
</g>
<g>
</g>
<g>
</g>
<g>
</g>
<g>
</g>
<g>
</g>
<g>
</g>
<g>
</g>
<g>
</g>
<g>
</g>
<g>
</g>
<g>
</g>
<g>
</g>
</svg>
